<svg xmlns="http://www.w3.org/2000/svg" xmlns:xlink="http://www.w3.org/1999/xlink" width="500" zoomAndPan="magnify" viewBox="0 0 375 374.999991" height="500" preserveAspectRatio="xMidYMid meet" version="1.0"><defs><g/><clipPath id="id1"><path d="M 90.054688 32.757812 L 285.054688 32.757812 L 285.054688 209 L 90.054688 209 Z M 90.054688 32.757812 " clip-rule="nonzero"/></clipPath><clipPath id="id2"><path d="M 138 157 L 237 157 L 237 227.757812 L 138 227.757812 Z M 138 157 " clip-rule="nonzero"/></clipPath></defs><g clip-path="url(#id1)"><path fill="#0098da" d="M 258.265625 197.386719 L 284.777344 194.21875 L 267.855469 185.578125 C 278.703125 169.859375 285.054688 150.796875 285.054688 130.253906 C 285.054688 76.40625 241.402344 32.757812 187.554688 32.757812 C 133.710938 32.757812 90.054688 76.40625 90.054688 130.253906 C 90.054688 162.257812 105.472656 190.660156 129.285156 208.4375 C 130.984375 200.007812 133.589844 192.105469 136.957031 184.96875 C 122.246094 171.351562 113.035156 151.878906 113.035156 130.253906 C 113.035156 89.097656 146.398438 55.734375 187.554688 55.734375 C 228.714844 55.734375 262.078125 89.097656 262.078125 130.253906 C 262.078125 145.101562 257.738281 158.933594 250.253906 170.550781 L 247.050781 164.167969 L 241.804688 153.726562 L 240.628906 173.515625 L 240.054688 183.148438 L 239.734375 188.507812 L 239.070312 199.683594 L 243.53125 199.152344 Z M 258.265625 197.386719 " fill-opacity="1" fill-rule="evenodd"/></g><path fill="#323748" d="M 255.949219 127.027344 C 255.996094 128.097656 256.023438 129.171875 256.023438 130.253906 C 256.023438 131.339844 255.996094 132.414062 255.949219 133.484375 L 237.726562 133.484375 C 237.792969 132.441406 237.824219 131.390625 237.824219 130.332031 C 237.824219 129.222656 237.792969 128.121094 237.71875 127.027344 Z M 255.949219 127.027344 " fill-opacity="1" fill-rule="evenodd"/><path fill="#323748" d="M 145.6875 158.160156 L 129.933594 167.253906 C 128.773438 165.445312 127.695312 163.582031 126.699219 161.664062 L 142.457031 152.566406 C 143.414062 154.507812 144.492188 156.371094 145.6875 158.160156 Z M 145.6875 158.160156 " fill-opacity="1" fill-rule="evenodd"/><path fill="#323748" d="M 119.164062 133.484375 C 119.113281 132.414062 119.085938 131.339844 119.085938 130.253906 C 119.085938 129.171875 119.113281 128.097656 119.164062 127.027344 L 137.394531 127.027344 C 137.324219 128.121094 137.289062 129.222656 137.289062 130.332031 C 137.289062 131.390625 137.320312 132.441406 137.382812 133.484375 Z M 119.164062 133.484375 " fill-opacity="1" fill-rule="evenodd"/><path fill="#323748" d="M 126.699219 98.851562 C 127.691406 96.933594 128.773438 95.066406 129.933594 93.257812 L 145.757812 102.394531 C 144.5625 104.179688 143.476562 106.042969 142.515625 107.980469 Z M 126.699219 98.851562 " fill-opacity="1" fill-rule="evenodd"/><path fill="#323748" d="M 150.558594 72.632812 C 152.367188 71.472656 154.230469 70.394531 156.152344 69.402344 L 165.300781 85.246094 C 163.359375 86.203125 161.492188 87.285156 159.707031 88.476562 L 150.558594 72.636719 Z M 150.558594 72.632812 " fill-opacity="1" fill-rule="evenodd"/><path fill="#323748" d="M 184.328125 61.863281 C 185.398438 61.8125 186.472656 61.789062 187.554688 61.789062 C 188.640625 61.789062 189.714844 61.8125 190.785156 61.863281 L 190.785156 80.164062 C 189.714844 80.097656 188.640625 80.0625 187.554688 80.0625 C 186.472656 80.0625 185.394531 80.097656 184.328125 80.164062 Z M 184.328125 61.863281 " fill-opacity="1" fill-rule="evenodd"/><path fill="#323748" d="M 218.960938 69.402344 C 220.882812 70.394531 222.746094 71.472656 224.554688 72.632812 L 215.40625 88.472656 C 213.621094 87.285156 211.753906 86.203125 209.8125 85.246094 Z M 218.960938 69.402344 " fill-opacity="1" fill-rule="evenodd"/><path fill="#323748" d="M 245.175781 93.257812 C 246.339844 95.066406 247.421875 96.933594 248.414062 98.851562 L 232.597656 107.980469 C 231.636719 106.042969 230.546875 104.179688 229.355469 102.394531 Z M 245.175781 93.257812 " fill-opacity="1" fill-rule="evenodd"/><path fill="#323748" d="M 187.554688 148.519531 C 175.277344 148.519531 165.320312 138.5625 165.320312 126.28125 C 165.320312 114 175.277344 104.046875 187.554688 104.046875 C 199.835938 104.046875 209.792969 114 209.792969 126.28125 C 209.792969 138.5625 199.835938 148.519531 187.554688 148.519531 Z M 187.554688 148.519531 " fill-opacity="1" fill-rule="evenodd"/><g clip-path="url(#id2)"><path fill="#323748" d="M 236.316406 214.710938 C 221.972656 223.007812 205.316406 227.757812 187.554688 227.757812 C 169.796875 227.757812 153.144531 223.007812 138.796875 214.710938 C 143.898438 181.84375 163.792969 157.332031 187.554688 157.332031 C 211.320312 157.332031 231.214844 181.84375 236.316406 214.710938 Z M 236.316406 214.710938 " fill-opacity="1" fill-rule="evenodd"/></g><g fill="#323748" fill-opacity="1"><g transform="translate(8.50277, 315.673554)"><g><path d="M 51.691406 -52.671875 L 1.128906 -52.671875 L 1.128906 -33.078125 L 12.207031 -33.078125 L 12.207031 -42.726562 L 18.6875 -42.726562 L 18.6875 -10.023438 L 12.507812 -10.023438 L 12.507812 0 L 40.539062 0 L 40.539062 -10.023438 L 34.285156 -10.023438 L 34.285156 -42.726562 L 40.617188 -42.726562 L 40.617188 -33.078125 L 51.691406 -33.078125 Z M 51.691406 -52.671875 "/></g></g></g><g fill="#323748" fill-opacity="1"><g transform="translate(71.873997, 315.673554)"><g><path d="M 1.882812 -52.671875 L 1.882812 -42.726562 L 6.632812 -42.726562 L 6.632812 -10.023438 L 1.882812 -10.023438 L 1.882812 0 L 26.902344 0 L 26.902344 -10.023438 L 22.230469 -10.023438 L 22.230469 -42.726562 L 26.902344 -42.726562 L 26.902344 -52.671875 Z M 1.882812 -52.671875 "/></g></g></g><g fill="#323748" fill-opacity="1"><g transform="translate(111.208116, 315.673554)"><g><path d="M 54.480469 -39.410156 L 54.480469 -9.796875 L 50.261719 -9.796875 L 50.261719 0 L 74.070312 0 L 74.070312 -9.796875 L 69.925781 -9.796875 L 69.925781 -42.953125 L 74.070312 -42.953125 L 74.070312 -52.671875 L 45.363281 -52.671875 L 38.128906 -24.488281 L 30.519531 -52.671875 L 1.960938 -52.671875 L 1.960938 -42.953125 L 5.953125 -42.953125 L 5.953125 -9.71875 L 1.882812 -9.71875 L 1.882812 0 L 22.304688 0 L 22.304688 -9.71875 L 18.007812 -9.71875 L 18.007812 -39.410156 L 18.3125 -39.410156 C 18.535156 -35.640625 19.515625 -31.347656 19.894531 -30.066406 L 28.332031 0 L 44.082031 0 L 51.992188 -29.3125 C 52.519531 -31.046875 53.574219 -36.019531 54.179688 -39.410156 Z M 54.480469 -39.410156 "/></g></g></g><g fill="#323748" fill-opacity="1"><g transform="translate(197.712227, 315.673554)"><g><path d="M 1.882812 -52.671875 L 1.882812 -42.726562 L 6.632812 -42.726562 L 6.632812 -10.023438 L 1.882812 -10.023438 L 1.882812 0 L 47.320312 0 L 47.320312 -17.03125 L 34.285156 -17.03125 L 34.285156 -10.023438 L 22.230469 -10.023438 L 22.230469 -22.304688 L 36.546875 -22.304688 L 36.546875 -32.328125 L 22.230469 -32.328125 L 22.230469 -42.726562 L 34.285156 -42.726562 L 34.285156 -36.019531 L 47.320312 -36.019531 L 47.320312 -52.671875 Z M 1.882812 -52.671875 "/></g></g></g><g fill="#323748" fill-opacity="1"><g transform="translate(257.466581, 315.673554)"><g><path d="M 1.882812 -52.671875 L 1.882812 -42.726562 L 6.554688 -42.726562 L 6.554688 -10.023438 L 1.882812 -10.023438 L 1.882812 0 L 29.914062 0 L 29.914062 -10.023438 L 22.230469 -10.023438 L 22.230469 -19.59375 L 36.546875 -19.59375 L 36.546875 -29.613281 L 22.230469 -29.613281 L 22.230469 -42.726562 L 33.609375 -42.726562 L 33.609375 -36.019531 L 46.945312 -36.019531 L 46.945312 -52.671875 Z M 1.882812 -52.671875 "/></g></g></g><g fill="#323748" fill-opacity="1"><g transform="translate(316.090658, 315.673554)"><g><path d="M 27.804688 -28.9375 C 27.503906 -30.214844 25.921875 -33.609375 25.46875 -35.039062 L 21.097656 -43.027344 L 25.015625 -43.027344 L 25.015625 -52.671875 L -0.753906 -52.671875 L -0.753906 -43.027344 L 2.9375 -43.027344 L 17.558594 -18.6875 L 17.558594 -9.796875 L 13.261719 -9.796875 L 13.261719 0 L 37.375 0 L 37.375 -9.796875 L 33.15625 -9.796875 L 33.15625 -18.535156 L 47.097656 -43.027344 L 51.164062 -43.027344 L 51.164062 -52.671875 L 30.894531 -52.671875 L 30.894531 -43.027344 L 35.039062 -43.027344 L 30.894531 -35.414062 C 30.066406 -33.609375 28.40625 -30.441406 28.105469 -28.9375 Z M 27.804688 -28.9375 "/></g></g></g></svg>