<svg xmlns="http://www.w3.org/2000/svg" xmlns:xlink="http://www.w3.org/1999/xlink" width="1000" zoomAndPan="magnify" viewBox="0 0 750 149.999998" height="200" preserveAspectRatio="xMidYMid meet" version="1.0"><defs><g/><clipPath id="id1"><path d="M 15 6.636719 L 151.5 6.636719 L 151.5 130 L 15 130 Z M 15 6.636719 " clip-rule="nonzero"/></clipPath><clipPath id="id2"><path d="M 49 93 L 118 93 L 118 143.136719 L 49 143.136719 Z M 49 93 " clip-rule="nonzero"/></clipPath></defs><g clip-path="url(#id1)"><path fill="#0098da" d="M 132.746094 121.878906 L 151.304688 119.660156 L 139.457031 113.613281 C 147.050781 102.609375 151.5 89.265625 151.5 74.886719 C 151.5 37.191406 120.941406 6.636719 83.25 6.636719 C 45.558594 6.636719 15 37.191406 15 74.886719 C 15 97.285156 25.792969 117.167969 42.460938 129.613281 C 43.648438 123.710938 45.472656 118.183594 47.828125 113.183594 C 37.53125 103.652344 31.085938 90.023438 31.085938 74.886719 C 31.085938 46.074219 54.441406 22.71875 83.25 22.71875 C 112.058594 22.71875 135.414062 46.074219 135.414062 74.886719 C 135.414062 85.277344 132.378906 94.960938 127.136719 103.09375 L 124.894531 98.625 L 121.222656 91.316406 L 120.398438 105.167969 L 120 111.910156 L 119.777344 115.664062 L 119.308594 123.484375 L 122.429688 123.113281 Z M 132.746094 121.878906 " fill-opacity="1" fill-rule="evenodd"/></g><path fill="#323748" d="M 131.125 72.625 C 131.160156 73.375 131.179688 74.128906 131.179688 74.886719 C 131.179688 75.644531 131.160156 76.398438 131.125 77.144531 L 118.371094 77.144531 C 118.417969 76.417969 118.4375 75.679688 118.4375 74.9375 C 118.4375 74.160156 118.414062 73.390625 118.363281 72.625 Z M 131.125 72.625 " fill-opacity="1" fill-rule="evenodd"/><path fill="#323748" d="M 53.941406 94.417969 L 42.914062 100.785156 C 42.101562 99.519531 41.347656 98.214844 40.648438 96.871094 L 51.679688 90.503906 C 52.351562 91.859375 53.105469 93.167969 53.941406 94.417969 Z M 53.941406 94.417969 " fill-opacity="1" fill-rule="evenodd"/><path fill="#323748" d="M 35.375 77.144531 C 35.339844 76.398438 35.320312 75.644531 35.320312 74.886719 C 35.320312 74.128906 35.339844 73.375 35.375 72.625 L 48.136719 72.625 C 48.085938 73.390625 48.0625 74.160156 48.0625 74.9375 C 48.0625 75.679688 48.085938 76.417969 48.128906 77.144531 Z M 35.375 77.144531 " fill-opacity="1" fill-rule="evenodd"/><path fill="#323748" d="M 40.648438 52.902344 C 41.34375 51.558594 42.101562 50.253906 42.914062 48.988281 L 53.992188 55.382812 C 53.15625 56.632812 52.394531 57.9375 51.722656 59.292969 Z M 40.648438 52.902344 " fill-opacity="1" fill-rule="evenodd"/><path fill="#323748" d="M 57.351562 34.550781 C 58.617188 33.738281 59.921875 32.980469 61.265625 32.289062 L 67.671875 43.378906 C 66.3125 44.050781 65.003906 44.804688 63.753906 45.640625 Z M 57.351562 34.550781 " fill-opacity="1" fill-rule="evenodd"/><path fill="#323748" d="M 80.988281 27.011719 C 81.738281 26.976562 82.492188 26.960938 83.25 26.960938 C 84.007812 26.960938 84.761719 26.976562 85.511719 27.011719 L 85.511719 39.820312 C 84.761719 39.773438 84.011719 39.75 83.25 39.75 C 82.492188 39.75 81.738281 39.773438 80.988281 39.820312 Z M 80.988281 27.011719 " fill-opacity="1" fill-rule="evenodd"/><path fill="#323748" d="M 105.234375 32.289062 C 106.578125 32.980469 107.882812 33.738281 109.148438 34.550781 L 102.746094 45.640625 C 101.496094 44.804688 100.1875 44.050781 98.828125 43.378906 Z M 105.234375 32.289062 " fill-opacity="1" fill-rule="evenodd"/><path fill="#323748" d="M 123.585938 48.988281 C 124.398438 50.253906 125.15625 51.558594 125.847656 52.902344 L 114.777344 59.292969 C 114.105469 57.9375 113.34375 56.632812 112.507812 55.382812 Z M 123.585938 48.988281 " fill-opacity="1" fill-rule="evenodd"/><path fill="#323748" d="M 83.25 87.667969 C 74.65625 87.667969 67.683594 80.699219 67.683594 72.105469 C 67.683594 63.507812 74.65625 56.539062 83.25 56.539062 C 91.84375 56.539062 98.816406 63.507812 98.816406 72.105469 C 98.816406 80.699219 91.84375 87.667969 83.25 87.667969 Z M 83.25 87.667969 " fill-opacity="1" fill-rule="evenodd"/><g clip-path="url(#id2)"><path fill="#323748" d="M 117.382812 134.003906 C 107.339844 139.8125 95.683594 143.136719 83.25 143.136719 C 70.816406 143.136719 59.160156 139.8125 49.117188 134.003906 C 52.6875 110.996094 66.617188 93.839844 83.25 93.839844 C 99.886719 93.839844 113.8125 110.996094 117.382812 134.003906 Z M 117.382812 134.003906 " fill-opacity="1" fill-rule="evenodd"/></g><g fill="#323748" fill-opacity="1"><g transform="translate(192.100587, 103.102084)"><g><path d="M 77.539062 -79.007812 L 1.695312 -79.007812 L 1.695312 -49.621094 L 18.3125 -49.621094 L 18.3125 -64.085938 L 28.03125 -64.085938 L 28.03125 -15.03125 L 18.761719 -15.03125 L 18.761719 0 L 60.808594 0 L 60.808594 -15.03125 L 51.429688 -15.03125 L 51.429688 -64.085938 L 60.921875 -64.085938 L 60.921875 -49.621094 L 77.539062 -49.621094 Z M 77.539062 -79.007812 "/></g></g></g><g fill="#323748" fill-opacity="1"><g transform="translate(287.151313, 103.102084)"><g><path d="M 2.824219 -79.007812 L 2.824219 -64.085938 L 9.945312 -64.085938 L 9.945312 -15.03125 L 2.824219 -15.03125 L 2.824219 0 L 40.351562 0 L 40.351562 -15.03125 L 33.34375 -15.03125 L 33.34375 -64.085938 L 40.351562 -64.085938 L 40.351562 -79.007812 Z M 2.824219 -79.007812 "/></g></g></g><g fill="#323748" fill-opacity="1"><g transform="translate(346.148862, 103.102084)"><g><path d="M 81.71875 -59.113281 L 81.71875 -14.695312 L 75.390625 -14.695312 L 75.390625 0 L 111.109375 0 L 111.109375 -14.695312 L 104.890625 -14.695312 L 104.890625 -64.425781 L 111.109375 -64.425781 L 111.109375 -79.007812 L 68.042969 -79.007812 L 57.191406 -36.734375 L 45.777344 -79.007812 L 2.9375 -79.007812 L 2.9375 -64.425781 L 8.929688 -64.425781 L 8.929688 -14.582031 L 2.824219 -14.582031 L 2.824219 0 L 33.457031 0 L 33.457031 -14.582031 L 27.015625 -14.582031 L 27.015625 -59.113281 L 27.464844 -59.113281 C 27.804688 -53.464844 29.273438 -47.019531 29.839844 -45.097656 L 42.5 0 L 66.121094 0 L 77.992188 -43.96875 C 78.78125 -46.566406 80.363281 -54.027344 81.269531 -59.113281 Z M 81.71875 -59.113281 "/></g></g></g><g fill="#323748" fill-opacity="1"><g transform="translate(475.896535, 103.102084)"><g><path d="M 2.824219 -79.007812 L 2.824219 -64.085938 L 9.945312 -64.085938 L 9.945312 -15.03125 L 2.824219 -15.03125 L 2.824219 0 L 70.984375 0 L 70.984375 -25.542969 L 51.429688 -25.542969 L 51.429688 -15.03125 L 33.34375 -15.03125 L 33.34375 -33.457031 L 54.820312 -33.457031 L 54.820312 -48.488281 L 33.34375 -48.488281 L 33.34375 -64.085938 L 51.429688 -64.085938 L 51.429688 -54.027344 L 70.984375 -54.027344 L 70.984375 -79.007812 Z M 2.824219 -79.007812 "/></g></g></g><g fill="#323748" fill-opacity="1"><g transform="translate(565.522328, 103.102084)"><g><path d="M 2.824219 -79.007812 L 2.824219 -64.085938 L 9.832031 -64.085938 L 9.832031 -15.03125 L 2.824219 -15.03125 L 2.824219 0 L 44.871094 0 L 44.871094 -15.03125 L 33.34375 -15.03125 L 33.34375 -29.386719 L 54.820312 -29.386719 L 54.820312 -44.421875 L 33.34375 -44.421875 L 33.34375 -64.085938 L 50.410156 -64.085938 L 50.410156 -54.027344 L 70.417969 -54.027344 L 70.417969 -79.007812 Z M 2.824219 -79.007812 "/></g></g></g><g fill="#323748" fill-opacity="1"><g transform="translate(653.452818, 103.102084)"><g><path d="M 41.707031 -43.402344 C 41.253906 -45.324219 38.882812 -50.410156 38.203125 -52.558594 L 31.648438 -64.539062 L 37.527344 -64.539062 L 37.527344 -79.007812 L -1.128906 -79.007812 L -1.128906 -64.539062 L 4.40625 -64.539062 L 26.335938 -28.03125 L 26.335938 -14.695312 L 19.894531 -14.695312 L 19.894531 0 L 56.0625 0 L 56.0625 -14.695312 L 49.734375 -14.695312 L 49.734375 -27.804688 L 70.644531 -64.539062 L 76.746094 -64.539062 L 76.746094 -79.007812 L 46.34375 -79.007812 L 46.34375 -64.539062 L 52.558594 -64.539062 L 46.34375 -53.125 C 45.097656 -50.410156 42.613281 -45.664062 42.160156 -43.402344 Z M 41.707031 -43.402344 "/></g></g></g></svg>